# AST/ASF file generated using VICON BodyLanguage
# -----------------------------------------------
:version 1.10
:name VICON
:units
  mass 1.0
  length 0.45
  angle deg
:documentation
   .ast/.asf automatically generated from VICON data using
   VICON BodyBuilder and BodyLanguage model FoxedUp or BRILLIANT.MOD
:root
   order TX TY TZ RX RY RZ
   axis XYZ
   position 0 0 0  
   orientation 0 0 0 
:bonedata
  begin
     id 1 
     name lhipjoint
     direction 0.711131 -0.61297 0.344326 
     length 2.29162 
     axis 0 0 0  XYZ
  end
  begin
     id 2 
     name lfemur
     direction 0.34202 -0.939693 0  
     length 6.71424  
     axis 0 0 20  XYZ
    dof rx ry rz
    limits (-160.0 20.0)
           (-70.0 70.0)
           (-60.0 70.0)
  end
  begin
     id 3 
     name ltibia
     direction 0.34202 -0.939693 0   
     length 6.7087   
     axis 0 0 20   XYZ
    dof rx
    limits (-10.0 170.0)
  end
  begin
     id 4 
     name lfoot
     direction 0.0230374 -0.0632947 0.997729   
     length 1.56743   
     axis -90 7.62852e-016 20   XYZ
    dof rx rz
    limits (-45.0 90.0)
           (-70.0 20.0)
  end
  begin
     id 5 
     name ltoes
     direction 1.53585e-011 -4.21885e-011 1   
     length 0.802914   
     axis -90 7.62852e-016 20   XYZ
    dof rx
    limits (-90.0 20.0)
  end
  begin
     id 6 
     name rhipjoint
     direction -0.733192 -0.592884 0.333043   
     length 2.36925  
     axis 0 0 0  XYZ 
  end
  begin
     id 7 
     name rfemur
     direction -0.34202 -0.939693 0   
     length 6.67027   
     axis 0 0 -20   XYZ
    dof rx ry rz
    limits (-160.0 20.0)
           (-70.0 70.0)
           (-70.0 60.0)
  end
  begin
     id 8 
     name rtibia
     direction -0.34202 -0.939693 0   
     length 6.6862   
     axis 0 0 -20   XYZ
    dof rx
    limits (-10.0 170.0)
 end
 begin
     id 9 
     name rfoot
     direction -0.0949739 -0.260939 0.960672   
     length 1.67698  
     axis -90 -7.62852e-016 -20   XYZ
    dof rx rz
    limits (-45.0 90.0)
           (-20.0 70.0)
  end
  begin
     id 10 
     name rtoes
     direction -1.5353e-011 -4.21868e-011 1   
     length 0.846298   
     axis -90 -7.62852e-016 -20   XYZ
    dof rx
    limits (-90.0 20.0)
  end
  begin
     id 11 
     name lowerback
     direction -0.0206828 0.999785 -0.00109866   
     length 2.04382   
     axis 0 0 0   XYZ
    dof rx ry rz
    limits (-20.0 45.0)
           (-30.0 30.0)
           (-30.0 30.0)
  end
  begin
     id 12 
     name upperback
     direction -0.0105003 0.999727 -0.0208904   
     length 2.04538   
     axis 0 0 0   XYZ
    dof rx ry rz
    limits (-20.0 45.0)
           (-30.0 30.0)
           (-30.0 30.0)
  end
  begin
     id 13 
     name thorax
     direction -0.000416255 0.999808 -0.0196023   
     length 2.0399   
     axis 0 0 0   XYZ
    dof rx ry rz
    limits (-20.0 45.0)
           (-30.0 30.0)
           (-30.0 30.0)
  end
  begin
     id 14 
     name lowerneck
     direction 0.0627861 0.989205 0.13241   
     length 1.46207   
     axis 0 0 0   XYZ
    dof rx ry rz
    limits (-20.0 45.0)
           (-30.0 30.0)
           (-30.0 30.0)
  end
  begin
     id 15 
     name upperneck
     direction 0.00627179 0.994526 0.104303   
     length 1.41419   
     axis 0 0 0   XYZ
    dof rx ry rz
    limits (-20.0 45.0)
           (-30.0 30.0)
           (-30.0 30.0)
  end
  begin
     id 16
     name head
     direction -0.00443838 0.999688 0.0245968  
     length 1.50718  
     axis 0 0 0   XYZ
    dof rx ry rz
    limits (-20.0 45.0)
           (-30.0 30.0)
           (-30.0 30.0)
  end
  begin
     id 17 
     name lclavicle
     direction 0.758742 0.650995 -0.0227258  
     length 2.86888  
     axis 0 0 0   XYZ
    dof ry rz
    limits (-20.0 10.0)
           (0.0 20.0)
  end
  begin
     id 18 
     name lhumerus
     direction 1 -4.48962e-011 1.06664e-027   
     length 4.65776   
     axis -180 -30 -90   XYZ
    dof rx ry rz
    limits (-60.0 90.0)
           (-90.0 90.0)
           (-90.0 90.0)
  end
  begin
     id 19
     name lradius
     direction 1 -4.48968e-011 1.40404e-026   
     length 3.55539   
     axis -180 -30 -90   XYZ
    dof rx
    limits (-10.0 170.0)
  end
  begin
     id 20
     name lwrist
     direction 1 -4.48976e-011 3.32647e-026   
     length 1.77769   
     axis -2.20186e-014 90 90   XYZ
    dof ry
    limits (-180.0 0.0)
 end
  begin
     id 21 
     name lhand
     direction 1 -4.48982e-011 6.65293e-026   
     length 0.707264   
     axis -4.24514e-014 90 90   XYZ
    dof rx rz
    limits (-90.0 90.0)
           (-45.0 45.0)
  end
  begin
     id 22 
     name lfingers
     direction 1 -4.48966e-011 1.33059e-025   
     length 0.570215   
     axis -8.49028e-014 90 90   XYZ
    dof rx
    limits (0.0 90.0)
  end
  begin
     id 23
     name lthumb
     direction 0.707107 -6.3493e-011 0.707107   
     length 0.818718   
     axis -90 45 2.85299e-015   XYZ
    dof rx rz
    limits (-45.0 45.0)
           (-45.0 45.0)
  end
  begin
     id 24 
     name rclavicle
     direction -0.870343 0.482028 -0.100759   
     length 3.2251  
     axis 0 0 0   XYZ 
    dof ry rz
    limits (-10.0 20.0)
           (-20.0 0.0)
  end
  begin
     id 25 
     name rhumerus
     direction -1 -4.48974e-011 -9.45849e-028  
     length 4.71925   
     axis -180 30 90   XYZ
    dof rx ry rz
    limits (-90.0 60.0)
           (-90.0 90.0)
           (-90.0 90.0)
  end
  begin
     id 26 
     name rradius
     direction -1 -4.48965e-011 1.17607e-026   
     length 3.5699   
     axis -180 30 90   XYZ
    dof rx
    limits (-10.0 170.0)
  end
  begin
     id 27 
     name rwrist
     direction -1 -4.48968e-011 3.32647e-026   
     length 1.78495   
     axis -2.20186e-014 -90 -90   XYZ
    dof ry
    limits (-180.0 0.0)
  end
  begin
     id 28
     name rhand
     direction -1 -4.48995e-011 6.65293e-026   
     length 0.507757   
     axis -4.24514e-014 -90 -90   XYZ
    dof rx rz
    limits (-90.0 90.0)
           (-45.0 45.0)
  end
  begin
     id 29
     name rfingers
     direction -1 -4.48864e-011 1.33059e-025   
     length 0.409367   
     axis -8.49028e-014 -90 -90   XYZ
    dof rx
    limits (0.0 90.0)
  end
  begin
     id 30
     name rthumb
     direction -0.707107 -6.3494e-011 0.707107   
     length 0.587771   
     axis -90 -45 -2.85299e-015   XYZ
    dof rx rz
    limits (-45.0 45.0)
           (-45.0 45.0)
  end
:hierarchy
  begin
    root lhipjoint rhipjoint lowerback
    lhipjoint lfemur
    lfemur ltibia
    ltibia lfoot
    lfoot ltoes
    rhipjoint rfemur
    rfemur rtibia
    rtibia rfoot
    rfoot rtoes
    lowerback upperback
    upperback thorax
    thorax lowerneck lclavicle rclavicle
    lowerneck upperneck
    upperneck head
    lclavicle lhumerus
    lhumerus lradius
    lradius lwrist
    lwrist lhand lthumb
    lhand lfingers
    rclavicle rhumerus
    rhumerus rradius
    rradius rwrist
    rwrist rhand rthumb
    rhand rfingers
  end

#!OML:ASF E:\Steps\Project 1\Capture day 1\Session 2\Subject.ASF
:FULLY-SPECIFIED
:DEGREES
1
root 8.97089 16.2683 31.3132 -153.773 -0.673937 179.04
lowerback -30.8606 -1.58828 -5.35413
upperback -1.98429 -1.0213 -0.455187
thorax 13.9789 -1.12486 1.91248
lowerneck 0.378328 -3.84409 -1.46793
upperneck -10.8238 -4.23396 5.40934
head -3.40969 -2.02823 2.15109
rclavicle -4.96962e-016 -6.36111e-015
rhumerus -25.8219 -17.1394 -84.8501
rradius 20.9427
rwrist 6.1442
rhand -7.35241 -52.3323
rfingers 7.12502
rthumb 18.5319 -81.4695
lclavicle -4.96962e-016 -6.36111e-015
lhumerus -24.2259 -3.41047 88.502
lradius 15.6397
lwrist -9.30217
lhand -21.6508 -10.5572
lfingers 7.12502
lthumb 4.746 19.3696
rfemur -23.9892 8.20193 18.9536
rtibia 9.33635
rfoot -20.7589 -8.5991
rtoes -32.8267
lfemur -24.0201 -7.80055 -19.5963
ltibia 8.69823
lfoot -9.07611 3.81516
ltoes -39.215
2
root 8.96831 16.269 31.3096 -153.832 -0.643215 179.03
lowerback -30.848 -1.54565 -5.32715
upperback -1.99112 -0.973901 -0.47691
thorax 13.9615 -1.10153 1.89365
lowerneck 0.494554 -3.86343 -1.46723
upperneck -10.9075 -4.25456 5.42316
head -3.45989 -2.04036 2.16207
rclavicle 9.44227e-015 1.94809e-014
rhumerus -25.8042 -17.2486 -84.8321
rradius 20.8742
rwrist 6.23678
rhand -7.43278 -52.8059
rfingers 7.12502
rthumb 18.4545 -81.9505
lclavicle 9.44227e-015 1.94809e-014
lhumerus -24.2592 -3.4295 88.5553
lradius 15.6197
lwrist -9.48634
lhand -21.8923 -11.0325
lfingers 7.12502
lthumb 4.51273 18.8994
rfemur -23.9278 8.1156 18.931
rtibia 9.39205
rfoot -20.8361 -8.60855
rtoes -33.3914
lfemur -23.9145 -8.08104 -19.5611
ltibia 8.63431
lfoot -9.12774 4.10646
ltoes -39.2516
3
root 8.97296 16.2677 31.3132 -153.727 -0.631334 179.044
lowerback -30.9361 -1.56139 -5.38359
upperback -2.01585 -0.98253 -0.449918
thorax 13.9725 -1.11269 1.94747
lowerneck 0.539024 -3.86652 -1.46109
upperneck -10.9959 -4.24941 5.43067
head -3.49939 -2.03726 2.16722
rclavicle -3.18055e-015 2.38542e-015
rhumerus -25.6801 -17.4705 -84.8151
rradius 20.7484
rwrist 6.49503
rhand -7.58396 -53.2285
rfingers 7.12502
rthumb 18.3091 -82.3868
lclavicle -3.18055e-015 2.38542e-015
lhumerus -24.2288 -3.36092 88.5531
lradius 15.6376
lwrist -9.49248
lhand -21.9381 -12.2915
lfingers 7.12502
lthumb 4.46852 17.6414
rfemur -24.0757 8.19267 18.9632
rtibia 9.39177
rfoot -20.8121 -8.68244
rtoes -33.7801
lfemur -24.0771 -7.87778 -19.5564
ltibia 8.75028
lfoot -9.19438 3.91666
ltoes -39.3227
4
root 8.9741 16.2661 31.3131 -153.719 -0.645148 179.084
lowerback -30.962 -1.54338 -5.34782
upperback -2.02029 -0.972318 -0.442995
thorax 13.9781 -1.10676 1.93919
lowerneck 0.52592 -3.85009 -1.45758
upperneck -10.964 -4.23137 5.41662
head -3.48681 -2.02836 2.16013
rclavicle -7.15625e-015 -1.66979e-014
rhumerus -25.5937 -17.7398 -84.7644
rradius 20.6001
rwrist 6.80576
rhand -7.6071 -53.2357
rfingers 7.12502
rthumb 18.2869 -82.3961
lclavicle -7.15625e-015 -1.66979e-014
lhumerus -24.2287 -3.52719 88.6072
lradius 15.7502
lwrist -9.17679
lhand -22.6917 -11.7251
lfingers 7.12502
lthumb 3.7408 18.2218
rfemur -24.0801 8.30208 18.9642
rtibia 9.28147
rfoot -20.7488 -8.64975
rtoes -33.2456
lfemur -24.0876 -7.85354 -19.5144
ltibia 8.73365
lfoot -9.1182 3.96116
ltoes -39.5356
5
root 8.97538 16.2632 31.313 -153.715 -0.599723 179.085
lowerback -30.9923 -1.51481 -5.35728
upperback -2.02467 -0.931997 -0.445476
thorax 13.9832 -1.09027 1.95697
lowerneck 0.493128 -3.82069 -1.46099
upperneck -10.9193 -4.19768 5.39236
head -3.46667 -2.01083 2.1495
rclavicle 3.72721e-015 -4.37326e-015
rhumerus -25.5255 -17.9439 -84.6996
rradius 20.4419
rwrist 6.99692
rhand -7.5608 -52.8164
rfingers 7.12502
rthumb 18.3314 -81.9726
lclavicle 3.72721e-015 -4.37326e-015
lhumerus -24.1947 -3.59021 88.6293
lradius 15.6887
lwrist -9.15833
lhand -21.7877 -12.1979
lfingers 7.12502
lthumb 4.6138 17.7319
rfemur -24.1024 8.29661 18.9609
rtibia 9.31391
rfoot -20.7681 -8.57222
rtoes -32.8472
lfemur -24.0705 -7.77769 -19.5396
ltibia 8.66908
lfoot -9.05884 3.95349
ltoes -39.926
6
root 8.97603 16.2605 31.3125 -153.634 -0.498733 179.063
lowerback -31.1172 -1.48755 -5.40318
upperback -2.03847 -0.881662 -0.45055
thorax 14.0177 -1.0747 1.99307
lowerneck 0.476198 -3.78838 -1.46051
upperneck -10.8659 -4.16214 5.36535
head -3.44673 -1.99328 2.13751
rclavicle -8.99501e-015 -2.3059e-014
rhumerus -25.4758 -17.984 -84.6785
rradius 20.3741
rwrist 7.01091
rhand -7.54336 -52.3916
rfingers 7.12502
rthumb 18.3482 -81.5462
lclavicle -8.99501e-015 -2.3059e-014
lhumerus -24.1556 -3.54246 88.6502
lradius 15.7174
lwrist -9.02609
lhand -21.4829 -11.6301
lfingers 7.12502
lthumb 4.9081 18.2931
rfemur -24.2285 8.12751 18.9689
rtibia 9.43249
rfoot -20.776 -8.4423
rtoes -33.3016
lfemur -24.107 -7.71374 -19.5906
ltibia 8.59548
lfoot -9.06654 3.85012
ltoes -39.7234
7
root 8.97724 16.2587 31.3135 -153.545 -0.482311 179.085
lowerback -31.2091 -1.47369 -5.39906
upperback -2.06488 -0.869321 -0.452943
thorax 14.0259 -1.07253 1.99071
lowerneck 0.497686 -3.78261 -1.45441
upperneck -10.826 -4.15784 5.38026
head -3.43698 -1.99349 2.14091
rclavicle 7.00716e-015 3.57812e-015
rhumerus -25.4907 -17.906 -84.7382
rradius 20.4384
rwrist 6.91416
rhand -7.57884 -52.3332
rfingers 7.12502
rthumb 18.314 -81.4911
lclavicle 7.00716e-015 3.57812e-015
lhumerus -24.1521 -3.44843 88.6035
lradius 15.7083
lwrist -9.18613
lhand -21.5497 -11.7472
lfingers 7.12502
lthumb 4.84354 18.1775
rfemur -24.3519 7.96983 19.028
rtibia 9.54373
rfoot -20.8589 -8.25303
rtoes -33.3341
lfemur -24.2386 -7.64334 -19.5588
ltibia 8.67453
lfoot -9.13903 3.71686
ltoes -38.8474
